<svg xmlns="http://www.w3.org/2000/svg" xmlns:xlink="http://www.w3.org/1999/xlink" contentStyleType="text/css" data-diagram-type="SEQUENCE" height="429px" preserveAspectRatio="none" style="width:1238px;height:429px;background:#FFFFFF;" version="1.1" viewBox="0 0 1238 429" width="1238px" zoomAndPan="magnify"><?plantuml 1.2026.4?><defs/><g><g><title>RouteController</title><rect fill="#FFFFFF" height="212.4609" style="stroke:#181818;stroke-width:1;" width="10" x="353.4648" y="114.9609"/></g><g><title>ListActiveRoutesUseCase</title><rect fill="#FFFFFF" height="151.7578" style="stroke:#181818;stroke-width:1;" width="10" x="577.415" y="145.3125"/></g><g><title>RouteRepository</title><rect fill="#FFFFFF" height="91.0547" style="stroke:#181818;stroke-width:1;" width="10" x="776.5439" y="175.6641"/></g><g><title>Database</title><rect fill="#FFFFFF" height="30.3516" style="stroke:#181818;stroke-width:1;" width="10" x="1189.8955" y="206.0156"/></g><g class="participant-lifeline" data-entity-uid="part1" data-qualified-name="BO" data-source-line="2" id="part1-lifeline"><g><title>ATCC</title><rect fill="#000000" fill-opacity="0.00000" height="262.8125" width="8" x="23.0552" y="82.6094"/><line style="stroke:#181818;stroke-width:0.5;stroke-dasharray:5,5;" x1="27" x2="27" y1="82.6094" y2="345.4219"/></g></g><g class="participant-lifeline" data-entity-uid="part2" data-qualified-name="Ctrl" data-source-line="3" id="part2-lifeline"><g><title>RouteController</title><rect fill="#000000" fill-opacity="0.00000" height="262.8125" width="8" x="354.4648" y="82.6094"/><line style="stroke:#181818;stroke-width:0.5;stroke-dasharray:5,5;" x1="358.4409" x2="358.4409" y1="82.6094" y2="345.4219"/></g></g><g class="participant-lifeline" data-entity-uid="part3" data-qualified-name="UC" data-source-line="4" id="part3-lifeline"><g><title>ListActiveRoutesUseCase</title><rect fill="#000000" fill-opacity="0.00000" height="262.8125" width="8" x="578.415" y="82.6094"/><line style="stroke:#181818;stroke-width:0.5;stroke-dasharray:5,5;" x1="581.4912" x2="581.4912" y1="82.6094" y2="345.4219"/></g></g><g class="participant-lifeline" data-entity-uid="part4" data-qualified-name="Repo" data-source-line="5" id="part4-lifeline"><g><title>RouteRepository</title><rect fill="#000000" fill-opacity="0.00000" height="262.8125" width="8" x="777.5439" y="82.6094"/><line style="stroke:#181818;stroke-width:0.5;stroke-dasharray:5,5;" x1="781.4063" x2="781.4063" y1="82.6094" y2="345.4219"/></g></g><g class="participant-lifeline" data-entity-uid="part5" data-qualified-name="DB" data-source-line="6" id="part5-lifeline"><g><title>Database</title><rect fill="#000000" fill-opacity="0.00000" height="262.8125" width="8" x="1190.8955" y="82.6094"/><line style="stroke:#181818;stroke-width:0.5;stroke-dasharray:5,5;" x1="1193.9302" x2="1193.9302" y1="82.6094" y2="345.4219"/></g></g><g class="participant participant-head" data-entity-uid="part1" data-qualified-name="BO" data-source-line="2" id="part1-head"><text fill="#000000" font-family="sans-serif" font-size="14" lengthAdjust="spacing" textLength="38.1104" x="5" y="79.5332">ATCC</text><ellipse cx="27.0552" cy="13.5" fill="#E2E2F0" rx="8" ry="8" style="stroke:#181818;stroke-width:0.5;"/><path d="M27.0552,21.5 L27.0552,48.5 M14.0552,29.5 L40.0552,29.5 M27.0552,48.5 L14.0552,63.5 M27.0552,48.5 L40.0552,63.5" fill="none" style="stroke:#181818;stroke-width:0.5;"/></g><g class="participant participant-tail" data-entity-uid="part1" data-qualified-name="BO" data-source-line="2" id="part1-tail"><text fill="#000000" font-family="sans-serif" font-size="14" lengthAdjust="spacing" textLength="38.1104" x="5" y="358.9551">ATCC</text><ellipse cx="27.0552" cy="370.5313" fill="#E2E2F0" rx="8" ry="8" style="stroke:#181818;stroke-width:0.5;"/><path d="M27.0552,378.5313 L27.0552,405.5313 M14.0552,386.5313 L40.0552,386.5313 M27.0552,405.5313 L14.0552,420.5313 M27.0552,405.5313 L40.0552,420.5313" fill="none" style="stroke:#181818;stroke-width:0.5;"/></g><g class="participant participant-head" data-entity-uid="part2" data-qualified-name="Ctrl" data-source-line="3" id="part2-head"><rect fill="#E2E2F0" height="31.6094" rx="2.5" ry="2.5" style="stroke:#181818;stroke-width:0.5;" width="112.0479" x="302.4409" y="50"/><text fill="#000000" font-family="sans-serif" font-size="14" lengthAdjust="spacing" textLength="98.0479" x="309.4409" y="71.5332">RouteController</text></g><g class="participant participant-tail" data-entity-uid="part2" data-qualified-name="Ctrl" data-source-line="3" id="part2-tail"><rect fill="#E2E2F0" height="31.6094" rx="2.5" ry="2.5" style="stroke:#181818;stroke-width:0.5;" width="112.0479" x="302.4409" y="344.4219"/><text fill="#000000" font-family="sans-serif" font-size="14" lengthAdjust="spacing" textLength="98.0479" x="309.4409" y="365.9551">RouteController</text></g><g class="participant participant-head" data-entity-uid="part3" data-qualified-name="UC" data-source-line="4" id="part3-head"><rect fill="#E2E2F0" height="31.6094" rx="2.5" ry="2.5" style="stroke:#181818;stroke-width:0.5;" width="175.8477" x="494.4912" y="50"/><text fill="#000000" font-family="sans-serif" font-size="14" lengthAdjust="spacing" textLength="161.8477" x="501.4912" y="71.5332">ListActiveRoutesUseCase</text></g><g class="participant participant-tail" data-entity-uid="part3" data-qualified-name="UC" data-source-line="4" id="part3-tail"><rect fill="#E2E2F0" height="31.6094" rx="2.5" ry="2.5" style="stroke:#181818;stroke-width:0.5;" width="175.8477" x="494.4912" y="344.4219"/><text fill="#000000" font-family="sans-serif" font-size="14" lengthAdjust="spacing" textLength="161.8477" x="501.4912" y="365.9551">ListActiveRoutesUseCase</text></g><g class="participant participant-head" data-entity-uid="part4" data-qualified-name="Repo" data-source-line="5" id="part4-head"><rect fill="#E2E2F0" height="31.6094" rx="2.5" ry="2.5" style="stroke:#181818;stroke-width:0.5;" width="118.2754" x="722.4063" y="50"/><text fill="#000000" font-family="sans-serif" font-size="14" lengthAdjust="spacing" textLength="104.2754" x="729.4063" y="71.5332">RouteRepository</text></g><g class="participant participant-tail" data-entity-uid="part4" data-qualified-name="Repo" data-source-line="5" id="part4-tail"><rect fill="#E2E2F0" height="31.6094" rx="2.5" ry="2.5" style="stroke:#181818;stroke-width:0.5;" width="118.2754" x="722.4063" y="344.4219"/><text fill="#000000" font-family="sans-serif" font-size="14" lengthAdjust="spacing" textLength="104.2754" x="729.4063" y="365.9551">RouteRepository</text></g><g class="participant participant-head" data-entity-uid="part5" data-qualified-name="DB" data-source-line="6" id="part5-head"><text fill="#000000" font-family="sans-serif" font-size="14" lengthAdjust="spacing" textLength="59.9307" x="1161.9302" y="79.5332">Database</text><path d="M1176.8955,29 C1176.8955,19 1194.8955,19 1194.8955,19 C1194.8955,19 1212.8955,19 1212.8955,29 L1212.8955,55 C1212.8955,65 1194.8955,65 1194.8955,65 C1194.8955,65 1176.8955,65 1176.8955,55 L1176.8955,29" fill="#E2E2F0" style="stroke:#181818;stroke-width:0.5;"/><path d="M1176.8955,29 C1176.8955,39 1194.8955,39 1194.8955,39 C1194.8955,39 1212.8955,39 1212.8955,29" fill="none" style="stroke:#181818;stroke-width:0.5;"/></g><g class="participant participant-tail" data-entity-uid="part5" data-qualified-name="DB" data-source-line="6" id="part5-tail"><text fill="#000000" font-family="sans-serif" font-size="14" lengthAdjust="spacing" textLength="59.9307" x="1161.9302" y="358.9551">Database</text><path d="M1176.8955,372.0313 C1176.8955,362.0313 1194.8955,362.0313 1194.8955,362.0313 C1194.8955,362.0313 1212.8955,362.0313 1212.8955,372.0313 L1212.8955,398.0313 C1212.8955,408.0313 1194.8955,408.0313 1194.8955,408.0313 C1194.8955,408.0313 1176.8955,408.0313 1176.8955,398.0313 L1176.8955,372.0313" fill="#E2E2F0" style="stroke:#181818;stroke-width:0.5;"/><path d="M1176.8955,372.0313 C1176.8955,382.0313 1194.8955,382.0313 1194.8955,382.0313 C1194.8955,382.0313 1212.8955,382.0313 1212.8955,372.0313" fill="none" style="stroke:#181818;stroke-width:0.5;"/></g><g><title>RouteController</title><rect fill="#FFFFFF" height="212.4609" style="stroke:#181818;stroke-width:1;" width="10" x="353.4648" y="114.9609"/></g><g><title>ListActiveRoutesUseCase</title><rect fill="#FFFFFF" height="151.7578" style="stroke:#181818;stroke-width:1;" width="10" x="577.415" y="145.3125"/></g><g><title>RouteRepository</title><rect fill="#FFFFFF" height="91.0547" style="stroke:#181818;stroke-width:1;" width="10" x="776.5439" y="175.6641"/></g><g><title>Database</title><rect fill="#FFFFFF" height="30.3516" style="stroke:#181818;stroke-width:1;" width="10" x="1189.8955" y="206.0156"/></g><g class="message" data-entity-1="part1" data-entity-2="part2" data-source-line="8" id="msg1"><polygon fill="#181818" points="341.4648,110.9609,351.4648,114.9609,341.4648,118.9609,345.4648,114.9609" style="stroke:#181818;stroke-width:1;stroke-linejoin:miter;stroke-miterlimit:10;"/><line style="stroke:#181818;stroke-width:1;" x1="27.0552" x2="347.4648" y1="114.9609" y2="114.9609"/><text fill="#000000" font-family="sans-serif" font-size="13" font-weight="700" lengthAdjust="spacing" textLength="7.23" x="34.0552" y="110.1045">1</text><text fill="#000000" font-family="sans-serif" font-size="13" lengthAdjust="spacing" textLength="273.1333" x="45.2852" y="110.1045">GET /api/routes?status=active&amp;sortBy={sortBy}</text></g><g class="message" data-entity-1="part2" data-entity-2="part3" data-source-line="11" id="msg2"><polygon fill="#181818" points="565.415,141.3125,575.415,145.3125,565.415,149.3125,569.415,145.3125" style="stroke:#181818;stroke-width:1;stroke-linejoin:miter;stroke-miterlimit:10;"/><line style="stroke:#181818;stroke-width:1;" x1="363.4648" x2="571.415" y1="145.3125" y2="145.3125"/><text fill="#000000" font-family="sans-serif" font-size="13" font-weight="700" lengthAdjust="spacing" textLength="7.23" x="370.4648" y="140.4561">2</text><text fill="#000000" font-family="sans-serif" font-size="13" lengthAdjust="spacing" textLength="183.7202" x="381.6948" y="140.4561">execute(status="active", sortBy)</text></g><g class="message" data-entity-1="part3" data-entity-2="part4" data-source-line="14" id="msg3"><polygon fill="#181818" points="764.5439,171.6641,774.5439,175.6641,764.5439,179.6641,768.5439,175.6641" style="stroke:#181818;stroke-width:1;stroke-linejoin:miter;stroke-miterlimit:10;"/><line style="stroke:#181818;stroke-width:1;" x1="587.415" x2="770.5439" y1="175.6641" y2="175.6641"/><text fill="#000000" font-family="sans-serif" font-size="13" font-weight="700" lengthAdjust="spacing" textLength="7.23" x="594.415" y="170.8076">3</text><text fill="#000000" font-family="sans-serif" font-size="13" lengthAdjust="spacing" textLength="148.8335" x="605.645" y="170.8076">findActiveAndSort(sortBy)</text></g><g class="message" data-entity-1="part4" data-entity-2="part5" data-source-line="16" id="msg4"><polygon fill="#181818" points="1177.8955,202.0156,1187.8955,206.0156,1177.8955,210.0156,1181.8955,206.0156" style="stroke:#181818;stroke-width:1;stroke-linejoin:miter;stroke-miterlimit:10;"/><line style="stroke:#181818;stroke-width:1;" x1="786.5439" x2="1183.8955" y1="206.0156" y2="206.0156"/><text fill="#000000" font-family="sans-serif" font-size="13" font-weight="700" lengthAdjust="spacing" textLength="7.23" x="793.5439" y="201.1592">4</text><text fill="#000000" font-family="sans-serif" font-size="13" lengthAdjust="spacing" textLength="373.1216" x="804.7739" y="201.1592">SELECT * FROM route WHERE active = true ORDER BY sortBy</text></g><g class="message" data-entity-1="part5" data-entity-2="part4" data-source-line="18" id="msg5"><polygon fill="#181818" points="797.5439,232.3672,787.5439,236.3672,797.5439,240.3672,793.5439,236.3672" style="stroke:#181818;stroke-width:1;stroke-linejoin:miter;stroke-miterlimit:10;"/><line style="stroke:#181818;stroke-width:1;stroke-dasharray:2,2;" x1="791.5439" x2="1193.8955" y1="236.3672" y2="236.3672"/><text fill="#000000" font-family="sans-serif" font-size="13" font-weight="700" lengthAdjust="spacing" textLength="7.23" x="803.5439" y="231.5107">5</text><text fill="#000000" font-family="sans-serif" font-size="13" lengthAdjust="spacing" textLength="160.4053" x="814.7739" y="231.5107">returns sorted route records</text></g><g class="message" data-entity-1="part4" data-entity-2="part3" data-source-line="20" id="msg6"><polygon fill="#181818" points="598.415,262.7188,588.415,266.7188,598.415,270.7188,594.415,266.7188" style="stroke:#181818;stroke-width:1;stroke-linejoin:miter;stroke-miterlimit:10;"/><line style="stroke:#181818;stroke-width:1;stroke-dasharray:2,2;" x1="592.415" x2="780.5439" y1="266.7188" y2="266.7188"/><text fill="#000000" font-family="sans-serif" font-size="13" font-weight="700" lengthAdjust="spacing" textLength="7.23" x="604.415" y="261.8623">6</text><text fill="#000000" font-family="sans-serif" font-size="13" lengthAdjust="spacing" textLength="153.8989" x="615.645" y="261.8623">returns list of sorted routes</text></g><g class="message" data-entity-1="part3" data-entity-2="part2" data-source-line="23" id="msg7"><polygon fill="#181818" points="374.4648,293.0703,364.4648,297.0703,374.4648,301.0703,370.4648,297.0703" style="stroke:#181818;stroke-width:1;stroke-linejoin:miter;stroke-miterlimit:10;"/><line style="stroke:#181818;stroke-width:1;stroke-dasharray:2,2;" x1="368.4648" x2="581.415" y1="297.0703" y2="297.0703"/><text fill="#000000" font-family="sans-serif" font-size="13" font-weight="700" lengthAdjust="spacing" textLength="7.23" x="380.4648" y="292.2139">7</text><text fill="#000000" font-family="sans-serif" font-size="13" lengthAdjust="spacing" textLength="172.7134" x="391.6948" y="292.2139">returns List&lt;RouteResponse&gt;</text></g><g class="message" data-entity-1="part2" data-entity-2="part1" data-source-line="26" id="msg8"><polygon fill="#181818" points="38.0552,323.4219,28.0552,327.4219,38.0552,331.4219,34.0552,327.4219" style="stroke:#181818;stroke-width:1;stroke-linejoin:miter;stroke-miterlimit:10;"/><line style="stroke:#181818;stroke-width:1;stroke-dasharray:2,2;" x1="32.0552" x2="357.4648" y1="327.4219" y2="327.4219"/><text fill="#000000" font-family="sans-serif" font-size="13" font-weight="700" lengthAdjust="spacing" textLength="7.23" x="44.0552" y="322.5654">8</text><text fill="#000000" font-family="sans-serif" font-size="13" lengthAdjust="spacing" textLength="291.1797" x="55.2852" y="322.5654">returns list of active Route details sorted by criteria</text></g><?plantuml-src RP51IyD048Nl-ok67AIAfNUnIhE9UgW4qXRnk4sci12pONSY5l6_EvbDRKiz9TcyxxrvEwOdr_OVM_JALEGy98krrWcO06cXEkF9LhOpBK5IkfvGkvQyQnhqej7actFLqWPQL6G_KVHX4r2RWABUw7ySI-nSi1oz5ytmgMf3PiiK9Ddu9l-oLAcqWEc3vC8TFEThc9dEphnaFGOor8UvaVohu3ob-_btVFueEJQ4SMeb7korqUo4NrYnnMHqIA95SWiHlZx2N48nmk0mAgCxszQnyQAjLooVN31IIkICPIb3gtoPwpNSm5DPl8AC3sylUPb3J8OvaEyHYZBBIqZVnpcEbdmNR3GzZk6HUjy64M8zMdgidA-3gl4KZ9CSgX_0XZS7RdTcS4PA2-b-tC017jP-F-upTAuD-72A3fSMxvjHNk5bwbXRBA16ChRvwxBTG-KjeRVcr7Gm_0K0?></g></svg>