<svg xmlns="http://www.w3.org/2000/svg" xmlns:xlink="http://www.w3.org/1999/xlink" contentStyleType="text/css" data-diagram-type="SEQUENCE" height="533px" preserveAspectRatio="none" style="width:1050px;height:533px;background:#FFFFFF;" version="1.1" viewBox="0 0 1050 533" width="1050px" zoomAndPan="magnify"><defs/><g><g><title>AircraftController</title><rect fill="#FFFFFF" height="315.2012" style="stroke:#181818;stroke-width:1;" width="10" x="333.2603" y="116.9121"/></g><g><title>ViewFleetStatusUseCase</title><rect fill="#FFFFFF" height="235.3281" style="stroke:#181818;stroke-width:1;" width="10" x="637.208" y="148.2031"/></g><g><title>AircraftRepository</title><rect fill="#FFFFFF" height="93.873" style="stroke:#181818;stroke-width:1;" width="10" x="834.1914" y="179.4941"/></g><g><title>Database</title><rect fill="#FFFFFF" height="31.291" style="stroke:#181818;stroke-width:1;" width="10" x="1010.2168" y="210.7852"/></g><g><title>ATCC</title><rect fill="#000000" fill-opacity="0.00000" height="366.4922" width="8" x="23.0552" y="83.6211"/><line style="stroke:#181818;stroke-width:0.5;stroke-dasharray:5,5;" x1="27" x2="27" y1="83.6211" y2="450.1133"/></g><g><title>AircraftController</title><rect fill="#000000" fill-opacity="0.00000" height="366.4922" width="8" x="334.2603" y="83.6211"/><line style="stroke:#181818;stroke-width:0.5;stroke-dasharray:5,5;" x1="337.7466" x2="337.7466" y1="83.6211" y2="450.1133"/></g><g><title>ViewFleetStatusUseCase</title><rect fill="#000000" fill-opacity="0.00000" height="366.4922" width="8" x="638.208" y="83.6211"/><line style="stroke:#181818;stroke-width:0.5;stroke-dasharray:5,5;" x1="641.8394" x2="641.8394" y1="83.6211" y2="450.1133"/></g><g><title>AircraftRepository</title><rect fill="#000000" fill-opacity="0.00000" height="366.4922" width="8" x="835.1914" y="83.6211"/><line style="stroke:#181818;stroke-width:0.5;stroke-dasharray:5,5;" x1="838.564" x2="838.564" y1="83.6211" y2="450.1133"/></g><g><title>Database</title><rect fill="#000000" fill-opacity="0.00000" height="366.4922" width="8" x="1011.2168" y="83.6211"/><line style="stroke:#181818;stroke-width:0.5;stroke-dasharray:5,5;" x1="1014.2515" x2="1014.2515" y1="83.6211" y2="450.1133"/></g><g class="participant participant-head" data-participant="Actor"><text fill="#000000" font-family="sans-serif" font-size="14" lengthAdjust="spacing" textLength="38.1104" x="5" y="80.1074">ATCC</text><ellipse cx="27.0552" cy="13.5" fill="#E3E3E3" rx="8" ry="8" style="stroke:#181818;stroke-width:0.5;"/><path d="M27.0552,21.5 L27.0552,48.5 M14.0552,29.5 L40.0552,29.5 M27.0552,48.5 L14.0552,63.5 M27.0552,48.5 L40.0552,63.5" fill="none" style="stroke:#181818;stroke-width:0.5;"/></g><g class="participant participant-tail" data-participant="Actor"><text fill="#000000" font-family="sans-serif" font-size="14" lengthAdjust="spacing" textLength="38.1104" x="5" y="464.2207">ATCC</text><ellipse cx="27.0552" cy="476.2344" fill="#E3E3E3" rx="8" ry="8" style="stroke:#181818;stroke-width:0.5;"/><path d="M27.0552,484.2344 L27.0552,511.2344 M14.0552,492.2344 L40.0552,492.2344 M27.0552,511.2344 L14.0552,526.2344 M27.0552,511.2344 L40.0552,526.2344" fill="none" style="stroke:#181818;stroke-width:0.5;"/></g><g class="participant participant-head" data-participant="Ctrl"><rect fill="#E3E3E3" height="32.6211" rx="2.5" ry="2.5" style="stroke:#181818;stroke-width:0.5;" width="119.0273" x="278.7466" y="50"/><text fill="#000000" font-family="sans-serif" font-size="14" lengthAdjust="spacing" textLength="105.0273" x="285.7466" y="72.1074">AircraftController</text></g><g class="participant participant-tail" data-participant="Ctrl"><rect fill="#E3E3E3" height="32.6211" rx="2.5" ry="2.5" style="stroke:#181818;stroke-width:0.5;" width="119.0273" x="278.7466" y="449.1133"/><text fill="#000000" font-family="sans-serif" font-size="14" lengthAdjust="spacing" textLength="105.0273" x="285.7466" y="471.2207">AircraftController</text></g><g class="participant participant-head" data-participant="UC"><rect fill="#E3E3E3" height="32.6211" rx="2.5" ry="2.5" style="stroke:#181818;stroke-width:0.5;" width="172.7373" x="555.8394" y="50"/><text fill="#000000" font-family="sans-serif" font-size="14" lengthAdjust="spacing" textLength="158.7373" x="562.8394" y="72.1074">ViewFleetStatusUseCase</text></g><g class="participant participant-tail" data-participant="UC"><rect fill="#E3E3E3" height="32.6211" rx="2.5" ry="2.5" style="stroke:#181818;stroke-width:0.5;" width="172.7373" x="555.8394" y="449.1133"/><text fill="#000000" font-family="sans-serif" font-size="14" lengthAdjust="spacing" textLength="158.7373" x="562.8394" y="471.2207">ViewFleetStatusUseCase</text></g><g class="participant participant-head" data-participant="Repo"><rect fill="#E3E3E3" height="32.6211" rx="2.5" ry="2.5" style="stroke:#181818;stroke-width:0.5;" width="125.2549" x="776.564" y="50"/><text fill="#000000" font-family="sans-serif" font-size="14" lengthAdjust="spacing" textLength="111.2549" x="783.564" y="72.1074">AircraftRepository</text></g><g class="participant participant-tail" data-participant="Repo"><rect fill="#E3E3E3" height="32.6211" rx="2.5" ry="2.5" style="stroke:#181818;stroke-width:0.5;" width="125.2549" x="776.564" y="449.1133"/><text fill="#000000" font-family="sans-serif" font-size="14" lengthAdjust="spacing" textLength="111.2549" x="783.564" y="471.2207">AircraftRepository</text></g><g class="participant participant-head" data-participant="DB"><text fill="#000000" font-family="sans-serif" font-size="14" lengthAdjust="spacing" textLength="59.9307" x="982.2515" y="80.1074">Database</text><path d="M997.2168,29 C997.2168,19 1015.2168,19 1015.2168,19 C1015.2168,19 1033.2168,19 1033.2168,29 L1033.2168,55 C1033.2168,65 1015.2168,65 1015.2168,65 C1015.2168,65 997.2168,65 997.2168,55 L997.2168,29" fill="#E3E3E3" style="stroke:#181818;stroke-width:0.5;"/><path d="M997.2168,29 C997.2168,39 1015.2168,39 1015.2168,39 C1015.2168,39 1033.2168,39 1033.2168,29" fill="none" style="stroke:#181818;stroke-width:0.5;"/></g><g class="participant participant-tail" data-participant="DB"><text fill="#000000" font-family="sans-serif" font-size="14" lengthAdjust="spacing" textLength="59.9307" x="982.2515" y="464.2207">Database</text><path d="M997.2168,477.7344 C997.2168,467.7344 1015.2168,467.7344 1015.2168,467.7344 C1015.2168,467.7344 1033.2168,467.7344 1033.2168,477.7344 L1033.2168,503.7344 C1033.2168,513.7344 1015.2168,513.7344 1015.2168,513.7344 C1015.2168,513.7344 997.2168,513.7344 997.2168,503.7344 L997.2168,477.7344" fill="#E3E3E3" style="stroke:#181818;stroke-width:0.5;"/><path d="M997.2168,477.7344 C997.2168,487.7344 1015.2168,487.7344 1015.2168,487.7344 C1015.2168,487.7344 1033.2168,487.7344 1033.2168,477.7344" fill="none" style="stroke:#181818;stroke-width:0.5;"/></g><g><title>AircraftController</title><rect fill="#FFFFFF" height="315.2012" style="stroke:#181818;stroke-width:1;" width="10" x="333.2603" y="116.9121"/></g><g><title>ViewFleetStatusUseCase</title><rect fill="#FFFFFF" height="235.3281" style="stroke:#181818;stroke-width:1;" width="10" x="637.208" y="148.2031"/></g><g><title>AircraftRepository</title><rect fill="#FFFFFF" height="93.873" style="stroke:#181818;stroke-width:1;" width="10" x="834.1914" y="179.4941"/></g><g><title>Database</title><rect fill="#FFFFFF" height="31.291" style="stroke:#181818;stroke-width:1;" width="10" x="1010.2168" y="210.7852"/></g><g class="message" data-participant-1="Actor" data-participant-2="Ctrl"><polygon fill="#181818" points="321.2603,112.9121,331.2603,116.9121,321.2603,120.9121,325.2603,116.9121" style="stroke:#181818;stroke-width:1;"/><line style="stroke:#181818;stroke-width:1;" x1="27.0552" x2="327.2603" y1="116.9121" y2="116.9121"/><text fill="#000000" font-family="sans-serif" font-size="13" font-weight="bold" lengthAdjust="spacing" textLength="7.23" x="34.0552" y="111.6494">1</text><text fill="#000000" font-family="sans-serif" font-size="13" lengthAdjust="spacing" textLength="168.3335" x="45.2852" y="111.6494">GET /api/aircrafts/fleet-status</text></g><g class="message" data-participant-1="Ctrl" data-participant-2="UC"><polygon fill="#181818" points="625.208,144.2031,635.208,148.2031,625.208,152.2031,629.208,148.2031" style="stroke:#181818;stroke-width:1;"/><line style="stroke:#181818;stroke-width:1;" x1="343.2603" x2="631.208" y1="148.2031" y2="148.2031"/><text fill="#000000" font-family="sans-serif" font-size="13" font-weight="bold" lengthAdjust="spacing" textLength="7.23" x="350.2603" y="142.9404">2</text><text fill="#000000" font-family="sans-serif" font-size="13" lengthAdjust="spacing" textLength="54.1899" x="361.4902" y="142.9404">execute()</text></g><g class="message" data-participant-1="UC" data-participant-2="Repo"><polygon fill="#181818" points="822.1914,175.4941,832.1914,179.4941,822.1914,183.4941,826.1914,179.4941" style="stroke:#181818;stroke-width:1;"/><line style="stroke:#181818;stroke-width:1;" x1="647.208" x2="828.1914" y1="179.4941" y2="179.4941"/><text fill="#000000" font-family="sans-serif" font-size="13" font-weight="bold" lengthAdjust="spacing" textLength="7.23" x="654.208" y="174.2314">3</text><text fill="#000000" font-family="sans-serif" font-size="13" lengthAdjust="spacing" textLength="114.8608" x="665.438" y="174.2314">findAll(0, MAX_INT)</text></g><g class="message" data-participant-1="Repo" data-participant-2="DB"><polygon fill="#181818" points="998.2168,206.7852,1008.2168,210.7852,998.2168,214.7852,1002.2168,210.7852" style="stroke:#181818;stroke-width:1;"/><line style="stroke:#181818;stroke-width:1;" x1="844.1914" x2="1004.2168" y1="210.7852" y2="210.7852"/><text fill="#000000" font-family="sans-serif" font-size="13" font-weight="bold" lengthAdjust="spacing" textLength="7.23" x="851.1914" y="205.5225">4</text><text fill="#000000" font-family="sans-serif" font-size="13" lengthAdjust="spacing" textLength="135.7954" x="862.4214" y="205.5225">SELECT FROM aircraft</text></g><g class="message" data-participant-1="DB" data-participant-2="Repo"><polygon fill="#181818" points="855.1914,238.0762,845.1914,242.0762,855.1914,246.0762,851.1914,242.0762" style="stroke:#181818;stroke-width:1;"/><line style="stroke:#181818;stroke-width:1;stroke-dasharray:2,2;" x1="849.1914" x2="1014.2168" y1="242.0762" y2="242.0762"/><text fill="#000000" font-family="sans-serif" font-size="13" font-weight="bold" lengthAdjust="spacing" textLength="7.23" x="861.1914" y="236.8135">5</text><text fill="#000000" font-family="sans-serif" font-size="13" lengthAdjust="spacing" textLength="86.6899" x="872.4214" y="236.8135">aircraft records</text></g><g class="message" data-participant-1="Repo" data-participant-2="UC"><polygon fill="#181818" points="658.208,269.3672,648.208,273.3672,658.208,277.3672,654.208,273.3672" style="stroke:#181818;stroke-width:1;"/><line style="stroke:#181818;stroke-width:1;stroke-dasharray:2,2;" x1="652.208" x2="838.1914" y1="273.3672" y2="273.3672"/><text fill="#000000" font-family="sans-serif" font-size="13" font-weight="bold" lengthAdjust="spacing" textLength="7.23" x="664.208" y="268.1045">6</text><text fill="#000000" font-family="sans-serif" font-size="13" lengthAdjust="spacing" textLength="151.7534" x="675.438" y="268.1045">PaginatedResult&lt;Aircraft&gt;</text></g><g class="message" data-participant-1="UC" data-participant-2="UC"><line style="stroke:#181818;stroke-width:1;" x1="647.208" x2="689.208" y1="321.9492" y2="321.9492"/><line style="stroke:#181818;stroke-width:1;" x1="689.208" x2="689.208" y1="321.9492" y2="334.9492"/><line style="stroke:#181818;stroke-width:1;" x1="648.208" x2="689.208" y1="334.9492" y2="334.9492"/><polygon fill="#181818" points="658.208,330.9492,648.208,334.9492,658.208,338.9492,654.208,334.9492" style="stroke:#181818;stroke-width:1;"/><text fill="#000000" font-family="sans-serif" font-size="13" font-weight="bold" lengthAdjust="spacing" textLength="7.23" x="654.208" y="308.041">7</text><text fill="#000000" font-family="sans-serif" font-size="13" lengthAdjust="spacing" textLength="135.8398" x="665.438" y="299.3955">group aircraft by status,</text><text fill="#000000" font-family="sans-serif" font-size="13" lengthAdjust="spacing" textLength="91.0635" x="665.438" y="316.6865">count per group</text></g><g class="message" data-participant-1="UC" data-participant-2="Ctrl"><polygon fill="#181818" points="354.2603,379.5313,344.2603,383.5313,354.2603,387.5313,350.2603,383.5313" style="stroke:#181818;stroke-width:1;"/><line style="stroke:#181818;stroke-width:1;stroke-dasharray:2,2;" x1="348.2603" x2="641.208" y1="383.5313" y2="383.5313"/><text fill="#000000" font-family="sans-serif" font-size="13" font-weight="bold" lengthAdjust="spacing" textLength="7.23" x="360.2603" y="369.623">8</text><text fill="#000000" font-family="sans-serif" font-size="13" lengthAdjust="spacing" textLength="124.2935" x="371.4902" y="360.9775">FleetStatusResponse</text><text fill="#000000" font-family="sans-serif" font-size="13" lengthAdjust="spacing" textLength="258.7178" x="371.4902" y="378.2686">{ groups: List&lt;FleetStatusGroupResponse&gt; }</text></g><g class="message" data-participant-1="Ctrl" data-participant-2="Actor"><polygon fill="#181818" points="38.0552,428.1133,28.0552,432.1133,38.0552,436.1133,34.0552,432.1133" style="stroke:#181818;stroke-width:1;"/><line style="stroke:#181818;stroke-width:1;stroke-dasharray:2,2;" x1="32.0552" x2="337.2603" y1="432.1133" y2="432.1133"/><text fill="#000000" font-family="sans-serif" font-size="13" font-weight="bold" lengthAdjust="spacing" textLength="7.23" x="44.0552" y="418.2051">9</text><text fill="#000000" font-family="sans-serif" font-size="13" lengthAdjust="spacing" textLength="44.0845" x="55.2852" y="409.5596">200 OK</text><text fill="#000000" font-family="sans-serif" font-size="13" lengthAdjust="spacing" textLength="270.9751" x="55.2852" y="426.8506">EntityModel&lt;FleetStatusResponse&gt; with _links</text></g><!--SRC=[RP5TQ_9048NlzrSCNhLGKNef8jXeIsbjN_melH3Ac8owkEw6tSbhfVI_Tx8n98NUPNEUCtDc1WjsjZXkoAjmq3P7ZqSuEklIlNT70lO5jPGSqmFkQC5dG-0fvPOMzfYvaxOxsA89f1Icx3nqniiawG0669Tl9J3hLETeMJJjKuzRJfnbxumX7yc4lVaDlcawtHiYNZ1o4LQ14WmKuLNoTyqvvIveQNcEMFbK6J9kn0YToUKhQfCxfM8ww8vYSnZ0mtG9FSnr3o_rGczR1kY6cA2SJlz7fYgiYYvnhnBnqYUb1TFLTKD9IYMQ46KGORRQPcDZhletC1k_Vpo-B5jq31j1CKpk15zCdwV94kxdhpEe4pMy321KjwbU8-MHdC-2ogWDLwNhkFzmfwqesPn2ONXORt3KTiL8bn6YQ-TTaJUDDcUeDdEpjgahv18v-GggRCrgMuUKZhcpWTRsgsB309vru66BUIZ_r-08ljkfohLMgvVorGa7SDllm-lJsaujQpxFN4Pc-4VF4Pmqx-73Q7lujQ1uqHy0]--></g></svg>