<svg xmlns="http://www.w3.org/2000/svg" xmlns:xlink="http://www.w3.org/1999/xlink" contentStyleType="text/css" data-diagram-type="SEQUENCE" height="554px" preserveAspectRatio="none" style="width:1131px;height:554px;background:#FFFFFF;" version="1.1" viewBox="0 0 1131 554" width="1131px" zoomAndPan="magnify"><?plantuml 1.2026.4?><defs/><g><g><title>RouteController</title><rect fill="#FFFFFF" height="337.8672" style="stroke:#181818;stroke-width:1;" width="10" x="360.6948" y="114.9609"/></g><g><title>ListActiveRoutesUseCase</title><rect fill="#FFFFFF" height="277.1641" style="stroke:#181818;stroke-width:1;" width="10" x="584.645" y="145.3125"/></g><g><title>RouteRepository</title><rect fill="#FFFFFF" height="91.0547" style="stroke:#181818;stroke-width:1;" width="10" x="781.603" y="175.6641"/></g><g><title>AirportRepository</title><rect fill="#FFFFFF" height="30.3516" style="stroke:#181818;stroke-width:1;" width="10" x="936.3418" y="347.7734"/></g><g><title>Database</title><rect fill="#FFFFFF" height="30.3516" style="stroke:#181818;stroke-width:1;" width="10" x="1082.9883" y="206.0156"/></g><rect fill="none" height="111.4063" style="stroke:#000000;stroke-width:1.5;" width="540.6963" x="481.7212" y="281.7188"/><rect fill="none" height="79.0547" style="stroke:#000000;stroke-width:1.5;" width="520.6963" x="491.7212" y="307.0703"/><g class="participant-lifeline" data-entity-uid="part1" data-qualified-name="BO" data-source-line="2" id="part1-lifeline"><g><title>ATCC</title><rect fill="#000000" fill-opacity="0.00000" height="388.2188" width="8" x="23.0552" y="82.6094"/><line style="stroke:#181818;stroke-width:0.5;stroke-dasharray:5,5;" x1="27" x2="27" y1="82.6094" y2="470.8281"/></g></g><g class="participant-lifeline" data-entity-uid="part2" data-qualified-name="Ctrl" data-source-line="3" id="part2-lifeline"><g><title>RouteController</title><rect fill="#000000" fill-opacity="0.00000" height="388.2188" width="8" x="361.6948" y="82.6094"/><line style="stroke:#181818;stroke-width:0.5;stroke-dasharray:5,5;" x1="365.6709" x2="365.6709" y1="82.6094" y2="470.8281"/></g></g><g class="participant-lifeline" data-entity-uid="part3" data-qualified-name="UC" data-source-line="4" id="part3-lifeline"><g><title>ListActiveRoutesUseCase</title><rect fill="#000000" fill-opacity="0.00000" height="388.2188" width="8" x="585.645" y="82.6094"/><line style="stroke:#181818;stroke-width:0.5;stroke-dasharray:5,5;" x1="588.7212" x2="588.7212" y1="82.6094" y2="470.8281"/></g></g><g class="participant-lifeline" data-entity-uid="part4" data-qualified-name="RouteRepo" data-source-line="5" id="part4-lifeline"><g><title>RouteRepository</title><rect fill="#000000" fill-opacity="0.00000" height="388.2188" width="8" x="782.603" y="82.6094"/><line style="stroke:#181818;stroke-width:0.5;stroke-dasharray:5,5;" x1="786.4653" x2="786.4653" y1="82.6094" y2="470.8281"/></g></g><g class="participant-lifeline" data-entity-uid="part5" data-qualified-name="AirportRepo" data-source-line="6" id="part5-lifeline"><g><title>AirportRepository</title><rect fill="#000000" fill-opacity="0.00000" height="388.2188" width="8" x="937.3418" y="82.6094"/><line style="stroke:#181818;stroke-width:0.5;stroke-dasharray:5,5;" x1="941.2661" x2="941.2661" y1="82.6094" y2="470.8281"/></g></g><g class="participant-lifeline" data-entity-uid="part6" data-qualified-name="DB" data-source-line="7" id="part6-lifeline"><g><title>Database</title><rect fill="#000000" fill-opacity="0.00000" height="388.2188" width="8" x="1083.9883" y="82.6094"/><line style="stroke:#181818;stroke-width:0.5;stroke-dasharray:5,5;" x1="1087.0229" x2="1087.0229" y1="82.6094" y2="470.8281"/></g></g><g class="participant participant-head" data-entity-uid="part1" data-qualified-name="BO" data-source-line="2" id="part1-head"><text fill="#000000" font-family="sans-serif" font-size="14" lengthAdjust="spacing" textLength="38.1104" x="5" y="79.5332">ATCC</text><ellipse cx="27.0552" cy="13.5" fill="#E2E2F0" rx="8" ry="8" style="stroke:#181818;stroke-width:0.5;"/><path d="M27.0552,21.5 L27.0552,48.5 M14.0552,29.5 L40.0552,29.5 M27.0552,48.5 L14.0552,63.5 M27.0552,48.5 L40.0552,63.5" fill="none" style="stroke:#181818;stroke-width:0.5;"/></g><g class="participant participant-tail" data-entity-uid="part1" data-qualified-name="BO" data-source-line="2" id="part1-tail"><text fill="#000000" font-family="sans-serif" font-size="14" lengthAdjust="spacing" textLength="38.1104" x="5" y="484.3613">ATCC</text><ellipse cx="27.0552" cy="495.9375" fill="#E2E2F0" rx="8" ry="8" style="stroke:#181818;stroke-width:0.5;"/><path d="M27.0552,503.9375 L27.0552,530.9375 M14.0552,511.9375 L40.0552,511.9375 M27.0552,530.9375 L14.0552,545.9375 M27.0552,530.9375 L40.0552,545.9375" fill="none" style="stroke:#181818;stroke-width:0.5;"/></g><g class="participant participant-head" data-entity-uid="part2" data-qualified-name="Ctrl" data-source-line="3" id="part2-head"><rect fill="#E2E2F0" height="31.6094" rx="2.5" ry="2.5" style="stroke:#181818;stroke-width:0.5;" width="112.0479" x="309.6709" y="50"/><text fill="#000000" font-family="sans-serif" font-size="14" lengthAdjust="spacing" textLength="98.0479" x="316.6709" y="71.5332">RouteController</text></g><g class="participant participant-tail" data-entity-uid="part2" data-qualified-name="Ctrl" data-source-line="3" id="part2-tail"><rect fill="#E2E2F0" height="31.6094" rx="2.5" ry="2.5" style="stroke:#181818;stroke-width:0.5;" width="112.0479" x="309.6709" y="469.8281"/><text fill="#000000" font-family="sans-serif" font-size="14" lengthAdjust="spacing" textLength="98.0479" x="316.6709" y="491.3613">RouteController</text></g><g class="participant participant-head" data-entity-uid="part3" data-qualified-name="UC" data-source-line="4" id="part3-head"><rect fill="#E2E2F0" height="31.6094" rx="2.5" ry="2.5" style="stroke:#181818;stroke-width:0.5;" width="175.8477" x="501.7212" y="50"/><text fill="#000000" font-family="sans-serif" font-size="14" lengthAdjust="spacing" textLength="161.8477" x="508.7212" y="71.5332">ListActiveRoutesUseCase</text></g><g class="participant participant-tail" data-entity-uid="part3" data-qualified-name="UC" data-source-line="4" id="part3-tail"><rect fill="#E2E2F0" height="31.6094" rx="2.5" ry="2.5" style="stroke:#181818;stroke-width:0.5;" width="175.8477" x="501.7212" y="469.8281"/><text fill="#000000" font-family="sans-serif" font-size="14" lengthAdjust="spacing" textLength="161.8477" x="508.7212" y="491.3613">ListActiveRoutesUseCase</text></g><g class="participant participant-head" data-entity-uid="part4" data-qualified-name="RouteRepo" data-source-line="5" id="part4-head"><rect fill="#E2E2F0" height="31.6094" rx="2.5" ry="2.5" style="stroke:#181818;stroke-width:0.5;" width="118.2754" x="727.4653" y="50"/><text fill="#000000" font-family="sans-serif" font-size="14" lengthAdjust="spacing" textLength="104.2754" x="734.4653" y="71.5332">RouteRepository</text></g><g class="participant participant-tail" data-entity-uid="part4" data-qualified-name="RouteRepo" data-source-line="5" id="part4-tail"><rect fill="#E2E2F0" height="31.6094" rx="2.5" ry="2.5" style="stroke:#181818;stroke-width:0.5;" width="118.2754" x="727.4653" y="469.8281"/><text fill="#000000" font-family="sans-serif" font-size="14" lengthAdjust="spacing" textLength="104.2754" x="734.4653" y="491.3613">RouteRepository</text></g><g class="participant participant-head" data-entity-uid="part5" data-qualified-name="AirportRepo" data-source-line="6" id="part5-head"><rect fill="#E2E2F0" height="31.6094" rx="2.5" ry="2.5" style="stroke:#181818;stroke-width:0.5;" width="122.1514" x="880.2661" y="50"/><text fill="#000000" font-family="sans-serif" font-size="14" lengthAdjust="spacing" textLength="108.1514" x="887.2661" y="71.5332">AirportRepository</text></g><g class="participant participant-tail" data-entity-uid="part5" data-qualified-name="AirportRepo" data-source-line="6" id="part5-tail"><rect fill="#E2E2F0" height="31.6094" rx="2.5" ry="2.5" style="stroke:#181818;stroke-width:0.5;" width="122.1514" x="880.2661" y="469.8281"/><text fill="#000000" font-family="sans-serif" font-size="14" lengthAdjust="spacing" textLength="108.1514" x="887.2661" y="491.3613">AirportRepository</text></g><g class="participant participant-head" data-entity-uid="part6" data-qualified-name="DB" data-source-line="7" id="part6-head"><text fill="#000000" font-family="sans-serif" font-size="14" lengthAdjust="spacing" textLength="59.9307" x="1055.0229" y="79.5332">Database</text><path d="M1069.9883,29 C1069.9883,19 1087.9883,19 1087.9883,19 C1087.9883,19 1105.9883,19 1105.9883,29 L1105.9883,55 C1105.9883,65 1087.9883,65 1087.9883,65 C1087.9883,65 1069.9883,65 1069.9883,55 L1069.9883,29" fill="#E2E2F0" style="stroke:#181818;stroke-width:0.5;"/><path d="M1069.9883,29 C1069.9883,39 1087.9883,39 1087.9883,39 C1087.9883,39 1105.9883,39 1105.9883,29" fill="none" style="stroke:#181818;stroke-width:0.5;"/></g><g class="participant participant-tail" data-entity-uid="part6" data-qualified-name="DB" data-source-line="7" id="part6-tail"><text fill="#000000" font-family="sans-serif" font-size="14" lengthAdjust="spacing" textLength="59.9307" x="1055.0229" y="484.3613">Database</text><path d="M1069.9883,497.4375 C1069.9883,487.4375 1087.9883,487.4375 1087.9883,487.4375 C1087.9883,487.4375 1105.9883,487.4375 1105.9883,497.4375 L1105.9883,523.4375 C1105.9883,533.4375 1087.9883,533.4375 1087.9883,533.4375 C1087.9883,533.4375 1069.9883,533.4375 1069.9883,523.4375 L1069.9883,497.4375" fill="#E2E2F0" style="stroke:#181818;stroke-width:0.5;"/><path d="M1069.9883,497.4375 C1069.9883,507.4375 1087.9883,507.4375 1087.9883,507.4375 C1087.9883,507.4375 1105.9883,507.4375 1105.9883,497.4375" fill="none" style="stroke:#181818;stroke-width:0.5;"/></g><g><title>RouteController</title><rect fill="#FFFFFF" height="337.8672" style="stroke:#181818;stroke-width:1;" width="10" x="360.6948" y="114.9609"/></g><g><title>ListActiveRoutesUseCase</title><rect fill="#FFFFFF" height="277.1641" style="stroke:#181818;stroke-width:1;" width="10" x="584.645" y="145.3125"/></g><g><title>RouteRepository</title><rect fill="#FFFFFF" height="91.0547" style="stroke:#181818;stroke-width:1;" width="10" x="781.603" y="175.6641"/></g><g><title>AirportRepository</title><rect fill="#FFFFFF" height="30.3516" style="stroke:#181818;stroke-width:1;" width="10" x="936.3418" y="347.7734"/></g><g><title>Database</title><rect fill="#FFFFFF" height="30.3516" style="stroke:#181818;stroke-width:1;" width="10" x="1082.9883" y="206.0156"/></g><g class="message" data-entity-1="part1" data-entity-2="part2" data-source-line="9" id="msg1"><polygon fill="#181818" points="348.6948,110.9609,358.6948,114.9609,348.6948,118.9609,352.6948,114.9609" style="stroke:#181818;stroke-width:1;stroke-linejoin:miter;stroke-miterlimit:10;"/><line style="stroke:#181818;stroke-width:1;" x1="27.0552" x2="354.6948" y1="114.9609" y2="114.9609"/><text fill="#000000" font-family="sans-serif" font-size="13" font-weight="700" lengthAdjust="spacing" textLength="7.23" x="34.0552" y="110.1045">1</text><text fill="#000000" font-family="sans-serif" font-size="13" lengthAdjust="spacing" textLength="273.1333" x="45.2852" y="110.1045">GET /api/routes?status=active&amp;sortBy={sortBy}</text></g><g class="message" data-entity-1="part2" data-entity-2="part3" data-source-line="12" id="msg2"><polygon fill="#181818" points="572.645,141.3125,582.645,145.3125,572.645,149.3125,576.645,145.3125" style="stroke:#181818;stroke-width:1;stroke-linejoin:miter;stroke-miterlimit:10;"/><line style="stroke:#181818;stroke-width:1;" x1="370.6948" x2="578.645" y1="145.3125" y2="145.3125"/><text fill="#000000" font-family="sans-serif" font-size="13" font-weight="700" lengthAdjust="spacing" textLength="7.23" x="377.6948" y="140.4561">2</text><text fill="#000000" font-family="sans-serif" font-size="13" lengthAdjust="spacing" textLength="183.7202" x="388.9248" y="140.4561">execute(status="active", sortBy)</text></g><g class="message" data-entity-1="part3" data-entity-2="part4" data-source-line="15" id="msg3"><polygon fill="#181818" points="769.603,171.6641,779.603,175.6641,769.603,179.6641,773.603,175.6641" style="stroke:#181818;stroke-width:1;stroke-linejoin:miter;stroke-miterlimit:10;"/><line style="stroke:#181818;stroke-width:1;" x1="594.645" x2="775.603" y1="175.6641" y2="175.6641"/><text fill="#000000" font-family="sans-serif" font-size="13" font-weight="700" lengthAdjust="spacing" textLength="7.23" x="601.645" y="170.8076">3</text><text fill="#000000" font-family="sans-serif" font-size="13" lengthAdjust="spacing" textLength="106.209" x="612.875" y="170.8076">findActiveRoutes()</text></g><g class="message" data-entity-1="part4" data-entity-2="part6" data-source-line="17" id="msg4"><polygon fill="#181818" points="1070.9883,202.0156,1080.9883,206.0156,1070.9883,210.0156,1074.9883,206.0156" style="stroke:#181818;stroke-width:1;stroke-linejoin:miter;stroke-miterlimit:10;"/><line style="stroke:#181818;stroke-width:1;" x1="791.603" x2="1076.9883" y1="206.0156" y2="206.0156"/><text fill="#000000" font-family="sans-serif" font-size="13" font-weight="700" lengthAdjust="spacing" textLength="7.23" x="798.603" y="201.1592">4</text><text fill="#000000" font-family="sans-serif" font-size="13" lengthAdjust="spacing" textLength="261.1553" x="809.833" y="201.1592">SELECT * FROM route WHERE active = true</text></g><g class="message" data-entity-1="part6" data-entity-2="part4" data-source-line="19" id="msg5"><polygon fill="#181818" points="802.603,232.3672,792.603,236.3672,802.603,240.3672,798.603,236.3672" style="stroke:#181818;stroke-width:1;stroke-linejoin:miter;stroke-miterlimit:10;"/><line style="stroke:#181818;stroke-width:1;stroke-dasharray:2,2;" x1="796.603" x2="1086.9883" y1="236.3672" y2="236.3672"/><text fill="#000000" font-family="sans-serif" font-size="13" font-weight="700" lengthAdjust="spacing" textLength="7.23" x="808.603" y="231.5107">5</text><text fill="#000000" font-family="sans-serif" font-size="13" lengthAdjust="spacing" textLength="158.2344" x="819.833" y="231.5107">returns active route records</text></g><g class="message" data-entity-1="part4" data-entity-2="part3" data-source-line="21" id="msg6"><polygon fill="#181818" points="605.645,262.7188,595.645,266.7188,605.645,270.7188,601.645,266.7188" style="stroke:#181818;stroke-width:1;stroke-linejoin:miter;stroke-miterlimit:10;"/><line style="stroke:#181818;stroke-width:1;stroke-dasharray:2,2;" x1="599.645" x2="785.603" y1="266.7188" y2="266.7188"/><text fill="#000000" font-family="sans-serif" font-size="13" font-weight="700" lengthAdjust="spacing" textLength="7.23" x="611.645" y="261.8623">6</text><text fill="#000000" font-family="sans-serif" font-size="13" lengthAdjust="spacing" textLength="151.728" x="622.875" y="261.8623">returns list of active routes</text></g><path d="M481.7212,281.7188 L541.8921,281.7188 L541.8921,290.0703 L531.8921,300.0703 L481.7212,300.0703 L481.7212,281.7188" fill="#EEEEEE" style="stroke:#000000;stroke-width:1.5;"/><rect fill="none" height="111.4063" style="stroke:#000000;stroke-width:1.5;" width="540.6963" x="481.7212" y="281.7188"/><text fill="#000000" font-family="sans-serif" font-size="13" font-weight="700" lengthAdjust="spacing" textLength="15.1709" x="496.7212" y="296.2139">alt</text><text fill="#000000" font-family="sans-serif" font-size="11" font-weight="700" lengthAdjust="spacing" textLength="116.1875" x="556.8921" y="295.1377">[sortBy == "distance"]</text><path d="M491.7212,307.0703 L564.1558,307.0703 L564.1558,315.4219 L554.1558,325.4219 L491.7212,325.4219 L491.7212,307.0703" fill="#EEEEEE" style="stroke:#000000;stroke-width:1.5;"/><rect fill="none" height="79.0547" style="stroke:#000000;stroke-width:1.5;" width="520.6963" x="491.7212" y="307.0703"/><text fill="#000000" font-family="sans-serif" font-size="13" font-weight="700" lengthAdjust="spacing" textLength="27.4346" x="506.7212" y="321.5654">loop</text><text fill="#000000" font-family="sans-serif" font-size="11" font-weight="700" lengthAdjust="spacing" textLength="80.6738" x="579.1558" y="320.4893">[for each route]</text><g class="message" data-entity-1="part3" data-entity-2="part5" data-source-line="26" id="msg7"><polygon fill="#181818" points="924.3418,343.7734,934.3418,347.7734,924.3418,351.7734,928.3418,347.7734" style="stroke:#181818;stroke-width:1;stroke-linejoin:miter;stroke-miterlimit:10;"/><line style="stroke:#181818;stroke-width:1;" x1="594.645" x2="930.3418" y1="347.7734" y2="347.7734"/><text fill="#000000" font-family="sans-serif" font-size="13" font-weight="700" lengthAdjust="spacing" textLength="7.23" x="601.645" y="342.917">7</text><text fill="#000000" font-family="sans-serif" font-size="13" lengthAdjust="spacing" textLength="311.4668" x="612.875" y="342.917">findCoordinates(route.originIata, route.destinationIata)</text></g><g class="message" data-entity-1="part5" data-entity-2="part3" data-source-line="28" id="msg8"><polygon fill="#181818" points="605.645,374.125,595.645,378.125,605.645,382.125,601.645,378.125" style="stroke:#181818;stroke-width:1;stroke-linejoin:miter;stroke-miterlimit:10;"/><line style="stroke:#181818;stroke-width:1;stroke-dasharray:2,2;" x1="599.645" x2="940.3418" y1="378.125" y2="378.125"/><text fill="#000000" font-family="sans-serif" font-size="13" font-weight="700" lengthAdjust="spacing" textLength="7.23" x="611.645" y="373.2686">8</text><text fill="#000000" font-family="sans-serif" font-size="13" lengthAdjust="spacing" textLength="216.0615" x="622.875" y="373.2686">returns origin and destination Airports</text></g><g class="message" data-entity-1="part3" data-entity-2="part2" data-source-line="34" id="msg9"><polygon fill="#181818" points="381.6948,418.4766,371.6948,422.4766,381.6948,426.4766,377.6948,422.4766" style="stroke:#181818;stroke-width:1;stroke-linejoin:miter;stroke-miterlimit:10;"/><line style="stroke:#181818;stroke-width:1;stroke-dasharray:2,2;" x1="375.6948" x2="588.645" y1="422.4766" y2="422.4766"/><text fill="#000000" font-family="sans-serif" font-size="13" font-weight="700" lengthAdjust="spacing" textLength="7.23" x="387.6948" y="417.6201">9</text><text fill="#000000" font-family="sans-serif" font-size="13" lengthAdjust="spacing" textLength="172.7134" x="398.9248" y="417.6201">returns List&lt;RouteResponse&gt;</text></g><g class="message" data-entity-1="part2" data-entity-2="part1" data-source-line="37" id="msg10"><polygon fill="#181818" points="38.0552,448.8281,28.0552,452.8281,38.0552,456.8281,34.0552,452.8281" style="stroke:#181818;stroke-width:1;stroke-linejoin:miter;stroke-miterlimit:10;"/><line style="stroke:#181818;stroke-width:1;stroke-dasharray:2,2;" x1="32.0552" x2="364.6948" y1="452.8281" y2="452.8281"/><text fill="#000000" font-family="sans-serif" font-size="13" font-weight="700" lengthAdjust="spacing" textLength="14.46" x="44.0552" y="447.9717">10</text><text fill="#000000" font-family="sans-serif" font-size="13" lengthAdjust="spacing" textLength="291.1797" x="62.5151" y="447.9717">returns list of active Route details sorted by criteria</text></g><?plantuml-src TPDDRzim38Rl-XM43qCxzEC-p2rYnLiBT0YG9UXPiPXDW2SP4Zqi6FRVHql-KDBD1zkW-RmaNz6g9sVx7mVqGZNaF1IhdPG5g03LHdJAasbCfon1iNKzeNIMl6jRz357ac_FirvCe5L3vYV6_B0FA5N0cBsN_r3SOkU2uTAdc3F7pbDNndVEqqLo5XLQaJfm9IZMurjCMLT2L1kuVOYzmWVuNE_WNdNctiV-7WCfwaEfOi_l0ijLf_9tUluHCQm8qwGYQh3MNh8I_iA69Qv6XI9953UGuEi5vi458mpEup5_D5RdLbrbn6B3GZ2-hfZxMh_KSWVluTDsymNY6F3wL6zhI1r02UHxNCJO0mPlByfxfDxRC459nsFZl0v2OqvdFKp3JtJBvmtkUAPoXY-J2DNIw0sK9HIQKMKRB0JmrJhNmP4taD7lIIV6Xojvbvtsw9vqtAonQZ0l4dVEcs_6FlC6t2IDEus1XXJZOlXw5fqxpBTe-fZNUZDpAWBAQiZK9oRC8faBbpNGQY7YRPXjsSwfnF0RVHoj2vsp0HzoKuU5Ihl8AA_tVyyZId0Zf4mRelceuN22nXj2RrGkEWZ-1G00?></g></svg>